<!DOCTYPE svg PUBLIC "-//W3C//DTD SVG 1.1//EN" "http://www.w3.org/Graphics/SVG/1.1/DTD/svg11.dtd">
<!-- Uploaded to: SVG Repo, www.svgrepo.com, Transformed by: SVG Repo Mixer Tools -->
<svg width="155px" height="155px" viewBox="-3.6 -3.6 31.20 31.20" fill="none" xmlns="http://www.w3.org/2000/svg" transform="rotate(0)">
<g id="SVGRepo_bgCarrier" stroke-width="0" transform="translate(3.4800000000000004,3.4800000000000004), scale(0.71)">
<path transform="translate(-3.6, -3.6), scale(0.9750000000000001)" d="M16,29.76594538241625C19.0058947752827,29.03207634154248,19.820295674529362,25.256023355613753,21.71240990856377,22.807785030901634C23.040330961021382,21.089565721337657,24.906769625019347,19.77403685598244,25.363036192054906,17.650955902009127C25.831500409859494,15.471117337678363,24.842565284349444,13.402964468252375,24.19188004811381,11.270415849052371C23.27359063883193,8.260824263542819,23.42873207234738,4.517481872948495,20.819253039610743,2.759211095031443C18.035154287148462,0.8832812952981957,13.73342152498544,0.39324058355764446,11.057431794133215,2.4204054602666645C8.401485251761848,4.432386852810103,9.745197301993452,8.65247800715341,8.815865211164063,11.852237845771011C8.221884655051618,13.897357289211465,6.849328708569615,15.532835682890564,6.633734657662773,17.651525288328656C6.33125859499943,20.6240233102503,5.516549781829238,23.95195875524194,7.344087793964835,26.315714468722476C9.303004207969298,28.849396304660285,12.888743569558565,30.525537764456853,16,29.76594538241625" fill="#7ed0ec" strokewidth="0"/>
</g>
<g id="SVGRepo_tracerCarrier" stroke-linecap="round" stroke-linejoin="round" stroke="#CCCCCC" stroke-width="0.096"/>
<g id="SVGRepo_iconCarrier"> <path d="M20 7L4 7" stroke="#1C274C" stroke-width="1.7759999999999998" stroke-linecap="round"/> <path opacity="0.7" d="M15 12L4 12" stroke="#1C274C" stroke-width="1.7759999999999998" stroke-linecap="round"/> <path opacity="0.4" d="M9 17H4" stroke="#1C274C" stroke-width="1.7759999999999998" stroke-linecap="round"/> </g>
</svg>