<?xml version="1.0" standalone="no"?>
<!DOCTYPE svg PUBLIC "-//W3C//DTD SVG 20010904//EN"
 "http://www.w3.org/TR/2001/REC-SVG-20010904/DTD/svg10.dtd">
<svg version="1.0" xmlns="http://www.w3.org/2000/svg"
 width="300.000000pt" height="214.000000pt" viewBox="0 0 300.000000 214.000000"
 preserveAspectRatio="xMidYMid meet">
<metadata>
Created by potrace 1.10, written by Peter Selinger 2001-2011
</metadata>
<g transform="translate(0.000000,214.000000) scale(0.100000,-0.100000)"
fill="#000000" stroke="none">
<path d="M1432 2030 c-12 -16 -22 -34 -22 -39 0 -6 -7 -14 -16 -19 -9 -5 -15
-12 -15 -15 2 -18 0 -25 -19 -45 -12 -12 -18 -22 -16 -22 3 0 -10 -25 -29 -55
-19 -30 -35 -59 -35 -65 0 -5 -4 -10 -9 -10 -5 0 -12 -8 -15 -17 -14 -38 -53
-103 -59 -98 -4 3 -5 2 -3 -1 3 -3 -9 -27 -25 -54 -16 -26 -29 -52 -29 -59 0
-6 -4 -11 -9 -11 -17 0 -21 -33 -6 -50 17 -19 13 -18 118 -21 67 -1 81 1 103
20 14 12 22 26 19 31 -3 6 -1 10 5 10 6 0 9 4 6 9 -7 11 29 53 38 44 4 -4 4 0
1 9 -4 9 0 18 8 21 9 3 18 20 22 37 4 17 12 29 18 27 7 -2 35 -46 64 -98 28
-52 57 -100 63 -106 6 -7 7 -13 3 -13 -4 0 -3 -4 3 -8 7 -4 25 -32 42 -62 16
-30 38 -71 48 -90 11 -19 25 -40 31 -48 7 -7 16 -20 21 -28 12 -21 183 -27
212 -7 11 8 18 18 15 23 -3 4 -2 10 2 13 5 2 2 2 -4 1 -7 -2 -13 5 -13 16 0
10 -4 21 -9 25 -6 3 -16 18 -24 33 -45 87 -63 118 -71 123 -5 4 -5 12 -2 18 4
6 0 11 -8 11 -9 0 -16 5 -16 11 0 6 -9 24 -21 40 -11 16 -22 37 -24 48 -5 29
-37 79 -73 117 -7 8 -10 14 -5 14 4 0 2 4 -6 9 -7 5 -14 22 -14 37 0 16 -2 23
-4 16 -3 -6 -9 -10 -13 -7 -5 3 -7 12 -4 19 3 7 -2 19 -11 26 -8 7 -15 22 -15
33 0 11 -3 18 -6 14 -4 -3 -18 16 -31 43 -14 28 -29 50 -34 50 -6 0 -8 4 -5 9
3 5 -1 12 -10 15 -9 4 -14 13 -10 21 3 8 0 14 -7 12 -7 -1 -12 5 -12 15 0 19
-33 58 -50 58 -6 0 -21 -13 -33 -30z m287 -430 c106 -184 201 -347 212 -362
l20 -28 -100 0 -99 0 -130 228 c-72 125 -137 240 -145 255 l-15 28 -14 -28
c-8 -15 -40 -72 -72 -125 l-57 -98 -95 0 c-52 0 -94 2 -94 4 0 3 49 87 109
188 59 101 135 228 167 284 l59 101 30 -56 c17 -31 118 -207 224 -391z"/>
<path d="M1831 1284 c0 -11 3 -14 6 -6 3 7 2 16 -1 19 -3 4 -6 -2 -5 -13z"/>
<path d="M1428 1434 l-23 -49 -170 0 -170 0 -27 -50 c-14 -27 -31 -56 -37 -62
-6 -7 -12 -16 -12 -20 -1 -5 -4 -14 -7 -21 -2 -7 0 -18 5 -23 5 -5 105 -10
226 -11 147 -1 217 -5 217 -12 0 -7 3 -7 8 0 4 7 39 12 87 12 120 1 114 -2 88
53 -13 26 -28 51 -33 54 -6 4 -8 11 -5 16 4 5 1 9 -4 9 -6 0 -11 5 -11 11 0 6
-9 24 -20 39 -11 16 -19 32 -18 37 3 11 -32 63 -44 63 -5 0 -1 -15 10 -32 11
-18 41 -73 67 -123 27 -49 52 -96 58 -102 7 -10 -55 -13 -307 -13 -174 0 -316
3 -316 8 0 4 20 41 43 82 l42 75 115 -2 c63 -2 138 -4 166 -5 l52 -3 28 52
c15 29 25 55 21 59 -3 3 -16 -16 -29 -42z"/>
<path d="M1433 1320 c0 -25 2 -35 4 -22 2 12 2 32 0 45 -2 12 -4 2 -4 -23z"/>
<path d="M1475 1350 c-3 -5 -1 -10 4 -10 6 0 11 5 11 10 0 6 -2 10 -4 10 -3 0
-8 -4 -11 -10z"/>
<path d="M1272 1325 c0 -16 2 -22 5 -12 2 9 2 23 0 30 -3 6 -5 -1 -5 -18z"/>
<path d="M1202 1310 c0 -14 2 -19 5 -12 2 6 2 18 0 25 -3 6 -5 1 -5 -13z"/>
<path d="M1470 1300 c0 -11 2 -20 4 -20 2 0 6 9 9 20 3 11 1 20 -4 20 -5 0 -9
-9 -9 -20z"/>
<path d="M1352 1280 c0 -19 2 -27 5 -17 2 9 2 25 0 35 -3 9 -5 1 -5 -18z"/>
<path d="M1391 1284 c0 -11 3 -14 6 -6 3 7 2 16 -1 19 -3 4 -6 -2 -5 -13z"/>
<path d="M1505 1280 c3 -5 8 -10 11 -10 2 0 4 5 4 10 0 6 -5 10 -11 10 -5 0
-7 -4 -4 -10z"/>
<path d="M1432 1250 c0 -14 2 -19 5 -12 2 6 2 18 0 25 -3 6 -5 1 -5 -13z"/>
<path d="M1391 1244 c0 -11 3 -14 6 -6 3 7 2 16 -1 19 -3 4 -6 -2 -5 -13z"/>
<path d="M1470 1239 c0 -5 5 -7 10 -4 6 3 10 8 10 11 0 2 -4 4 -10 4 -5 0 -10
-5 -10 -11z"/>
<path d="M65 1118 c-13 -13 -17 -31 -16 -78 1 -36 -3 -60 -10 -60 -6 0 -7 -5
-2 -12 4 -7 8 -68 9 -134 1 -147 8 -158 91 -146 11 2 29 40 25 55 -1 4 3 7 8
7 7 0 7 7 0 21 -6 11 -9 33 -5 49 6 25 10 28 48 26 l41 -1 3 -69 c4 -88 25
-110 87 -86 24 9 26 15 26 65 0 32 4 55 11 55 5 0 7 5 3 11 -4 7 -8 75 -9 151
-2 150 -5 157 -55 158 -14 0 -73 2 -131 3 -88 2 -109 -1 -124 -15z m282 -20
c10 -16 4 -380 -7 -391 -4 -5 -18 -7 -31 -5 -23 3 -24 7 -27 86 l-3 82 -69 0
-70 0 0 -80 c0 -76 -1 -80 -24 -86 -14 -3 -30 -3 -35 1 -12 7 -16 387 -4 398
13 13 261 8 270 -5z"/>
<path d="M140 990 l0 -50 73 0 72 0 -1 47 -1 48 -72 3 -71 3 0 -51z m120 13
c0 -7 -6 -13 -12 -14 -10 0 -10 -2 0 -6 28 -11 9 -24 -30 -21 -35 3 -42 7 -45
28 -3 23 0 25 42 25 30 0 45 -4 45 -12z"/>
<path d="M446 1117 c-23 -16 -25 -23 -21 -82 2 -36 -1 -65 -5 -65 -5 0 -7 -7
-4 -15 11 -26 9 -135 -1 -139 -7 -3 -7 -5 0 -5 6 -1 9 -22 7 -49 -6 -75 8 -81
162 -83 177 -1 168 -12 169 214 0 137 3 174 13 170 15 -5 48 -53 37 -53 -4 0
5 -12 19 -27 47 -51 54 -86 46 -222 -3 -36 1 -47 21 -62 32 -26 57 -24 87 6
14 14 20 25 14 25 -14 0 -13 63 3 79 10 11 10 13 0 7 -7 -4 -13 -2 -13 3 0 6
5 11 10 11 6 0 10 5 10 11 0 5 -5 7 -12 3 -8 -5 -9 5 -4 37 4 24 14 47 22 52
8 5 12 12 9 17 -3 4 2 10 10 14 8 3 15 12 15 19 0 15 33 57 45 57 4 0 5 -7 1
-15 -3 -8 -1 -15 4 -15 5 0 7 -17 4 -37 -11 -91 5 -126 59 -128 19 -1 39 -5
45 -9 6 -3 13 -2 16 3 4 5 14 8 24 6 9 -2 29 -4 45 -4 20 -1 27 -6 27 -20 0
-29 -11 -32 -105 -33 -79 0 -87 -2 -105 -25 -14 -18 -17 -30 -10 -42 18 -35
42 -46 101 -45 37 1 56 -2 52 -9 -4 -6 -1 -7 8 -1 8 5 42 9 76 10 42 1 67 6
78 18 9 9 13 16 8 16 -4 0 -1 5 7 10 11 7 11 10 2 10 -9 0 -11 12 -6 48 3 26
5 58 4 72 -3 40 -3 44 5 65 5 14 4 16 -3 7 -7 -11 -11 -10 -17 5 -5 10 -8 20
-7 23 0 3 -38 5 -84 5 -74 -1 -85 2 -90 18 -5 16 -8 17 -15 6 -7 -11 -9 -11
-9 3 0 26 14 30 110 31 77 2 91 5 104 22 11 15 12 23 3 34 -7 8 -11 17 -9 20
7 18 -29 40 -60 36 -19 -2 -36 1 -40 8 -5 8 -11 9 -15 2 -5 -6 -43 -10 -86
-10 -85 1 -120 -16 -112 -55 2 -11 0 -20 -4 -20 -5 0 -8 11 -8 24 0 32 -27 58
-55 54 -26 -3 -33 -9 -72 -60 -16 -21 -32 -35 -37 -32 -5 3 -7 10 -4 15 4 5
-6 21 -22 36 -15 16 -27 31 -25 36 1 4 -13 7 -32 7 -33 0 -66 -21 -66 -41 0
-5 -4 -9 -10 -9 -5 0 -10 6 -10 14 0 19 -51 38 -85 32 -15 -3 -33 -2 -39 1
-15 10 -56 10 -56 0 0 -4 -4 -5 -10 -2 -23 14 -90 10 -114 -8z m272 -15 c9 -7
12 -54 10 -203 l-3 -194 -140 0 -140 0 2 189 c1 104 4 195 7 202 4 11 33 14
128 14 68 0 129 -4 136 -8z m138 -4 c1 -2 18 -29 37 -61 l35 -58 37 61 c31 51
41 60 65 60 16 0 31 -4 34 -8 2 -4 -19 -44 -47 -87 l-52 -80 -5 -110 -5 -110
-30 0 -30 0 -5 115 -5 115 -48 74 c-52 78 -55 105 -11 97 15 -3 28 -7 30 -8z
m539 -28 c0 -25 -1 -25 -105 -30 l-105 -5 0 -50 0 -50 105 -5 105 -5 0 -110 0
-110 -138 -3 c-121 -2 -138 -1 -144 14 -15 38 9 48 113 49 l99 0 0 50 0 50
-105 5 c-58 3 -104 8 -102 13 1 4 2 54 2 112 l0 106 138 -3 137 -3 0 -25z"/>
<path d="M517 1033 c-3 -5 -6 -65 -6 -135 l-2 -128 76 0 75 0 0 50 0 49 -57 3
c-57 3 -58 3 -58 33 0 30 1 30 58 33 l57 3 0 49 0 50 -69 0 c-39 0 -72 -3 -74
-7z m73 -26 c0 -4 10 -2 23 4 12 6 19 8 15 4 -4 -5 -3 -14 3 -21 13 -16 4 -33
-19 -33 -9 0 -29 -2 -43 -4 -23 -3 -26 -1 -26 27 0 26 4 31 24 31 13 0 23 -4
23 -8z m40 -185 c0 -26 -3 -28 -43 -30 -41 -3 -43 -1 -45 28 -2 29 -1 30 43
30 43 0 45 -1 45 -28z"/>
<path d="M2465 1131 c5 -9 3 -12 -6 -9 -7 2 -22 -3 -32 -13 -16 -14 -18 -25
-12 -56 11 -59 14 -282 4 -289 -13 -8 -11 -68 3 -82 15 -15 79 -16 111 -1 20
9 23 17 20 51 -2 23 -7 46 -11 52 -13 17 -3 268 10 260 5 -3 8 6 8 19 0 28
-28 57 -56 57 -11 0 -26 6 -33 13 -11 10 -12 9 -6 -2z m65 -66 c0 -19 -4 -35
-10 -35 -6 0 -10 -51 -10 -134 0 -79 4 -137 10 -141 6 -3 10 -19 10 -36 0 -28
-1 -29 -50 -29 l-50 0 0 35 c0 19 3 35 8 35 4 0 7 61 8 135 0 74 -3 135 -8
135 -4 0 -8 16 -8 35 l0 35 50 0 50 0 0 -35z"/>
<path d="M1518 1122 c-36 -4 -51 -25 -51 -72 0 -22 -4 -40 -10 -40 -6 0 -6 -4
1 -12 5 -7 8 -33 7 -58 -2 -25 2 -54 8 -65 6 -11 10 -23 9 -27 -1 -5 43 -8 99
-8 l100 0 -3 -26 c-3 -24 -8 -27 -46 -30 -25 -2 -40 1 -37 6 4 6 -3 7 -17 1
-13 -5 -36 -7 -51 -6 -26 3 -56 -15 -58 -36 -8 -68 12 -80 133 -74 52 2 88 0
88 -6 0 -6 8 -5 20 1 11 6 25 8 30 5 18 -11 52 35 46 61 -4 14 -2 24 4 24 7 0
7 7 -1 21 -7 15 -8 19 0 15 18 -11 0 115 -21 149 -10 17 -18 24 -18 17 0 -16
-87 -14 -109 2 -11 8 -13 8 -7 -1 5 -10 -3 -13 -31 -13 -21 0 -33 4 -28 8 6 4
10 16 10 27 0 18 8 20 85 25 115 7 133 20 116 83 -7 22 -14 27 -40 28 -126 3
-205 4 -228 1z m247 -57 l0 -30 -95 -2 c-52 -1 -101 -2 -108 -2 -9 -1 -12 -15
-10 -48 l3 -48 105 -5 105 -5 3 -109 c1 -60 -1 -112 -7 -115 -5 -3 -69 -4
-142 -1 l-134 5 0 25 c0 25 0 25 108 28 l107 3 0 49 c0 45 -2 50 -22 51 -13 1
-30 2 -38 3 -8 2 -45 3 -82 4 l-68 2 0 115 0 116 138 -3 137 -3 0 -30z"/>
<path d="M1870 1118 c-27 -10 -40 -46 -28 -78 10 -26 11 -127 2 -240 -5 -77
-6 -112 0 -118 3 -2 24 -6 48 -8 52 -5 78 11 78 46 0 14 -2 87 -4 162 -2 76 0
136 3 133 9 -5 8 55 -2 81 -8 24 -60 36 -97 22z m85 -45 c-1 -16 -6 -36 -10
-46 -4 -10 -5 -90 -3 -178 l5 -159 -42 0 c-40 0 -43 2 -47 30 -3 16 -1 33 3
37 10 10 16 273 7 273 -5 0 -8 16 -8 35 l0 35 49 0 c47 0 49 -1 46 -27z"/>
<path d="M2283 1119 c-30 -11 -44 -41 -38 -84 2 -20 0 -47 -5 -61 -7 -17 -7
-23 0 -19 11 7 14 -18 3 -28 -6 -6 -33 39 -76 123 -29 59 -83 85 -120 58 -12
-9 -18 -31 -21 -74 -2 -34 -7 -68 -11 -74 -5 -8 -4 -11 2 -7 7 5 11 -18 11
-66 0 -49 -2 -66 -8 -52 -6 15 -9 16 -9 4 -1 -9 2 -19 6 -23 4 -4 8 -34 9 -67
1 -33 5 -63 7 -66 3 -3 21 -7 40 -10 52 -7 62 13 61 123 0 52 1 92 3 91 5 -6
52 -91 78 -145 30 -60 54 -76 96 -67 35 8 47 27 47 77 0 20 3 42 8 49 4 7 3
10 -4 5 -7 -4 -10 4 -10 24 1 16 5 30 11 30 5 0 6 8 2 18 -5 9 -9 58 -10 107
-3 97 -10 125 -30 125 -7 0 -15 4 -17 9 -2 5 -13 5 -25 0z m-95 -159 c40 -77
74 -140 76 -140 1 0 2 59 1 130 -2 139 3 155 46 148 21 -3 22 -5 20 -197 -1
-107 -4 -198 -7 -203 -8 -12 -50 -9 -62 5 -5 6 -35 62 -67 122 -31 61 -62 119
-69 130 -9 16 -12 -8 -16 -120 l-5 -140 -25 0 -25 0 -3 190 c-1 104 0 195 2
202 3 7 18 13 33 13 26 0 34 -11 101 -140z"/>
<path d="M2667 1102 c-9 -10 -19 -35 -22 -57 -2 -21 -9 -52 -14 -69 -5 -17
-12 -47 -15 -66 -3 -19 -9 -46 -12 -60 -3 -14 -11 -53 -16 -88 -9 -57 -9 -64
8 -77 36 -27 101 -11 101 25 0 8 8 47 18 85 10 39 17 84 17 100 -1 43 14 12
22 -45 12 -93 32 -160 50 -172 20 -14 49 -8 71 12 20 19 21 26 13 68 -5 26
-10 58 -12 72 -2 14 -6 32 -9 40 -10 28 -26 143 -21 151 3 5 0 9 -5 9 -6 0
-11 10 -11 23 0 44 -22 59 -87 63 -48 3 -64 0 -76 -14z m127 -8 c9 -3 16 -15
16 -26 0 -11 9 -63 19 -116 11 -54 22 -115 25 -137 2 -22 10 -53 16 -69 13
-36 -3 -58 -39 -54 -24 3 -27 9 -53 133 -15 72 -27 142 -27 158 -1 15 -5 27
-10 27 -9 0 -15 -21 -26 -90 -3 -19 -14 -77 -25 -127 -11 -51 -20 -95 -20 -98
0 -12 -61 -4 -66 9 -3 7 9 80 26 162 17 82 34 165 37 184 3 19 11 38 17 42 13
9 88 10 110 2z"/>
<path d="M856 630 c-21 -4 -41 -13 -45 -19 -6 -9 -11 -8 -21 4 -16 19 -60 20
-85 1 -16 -11 -21 -11 -33 0 -17 18 -46 18 -82 -1 -22 -11 -27 -20 -23 -37 3
-13 10 -28 15 -35 6 -7 4 -19 -4 -32 -26 -42 55 -73 100 -38 9 7 16 7 24 -1
16 -16 81 -15 96 0 9 9 12 9 12 0 0 -19 28 -14 52 8 12 11 18 20 13 20 -5 0 1
7 13 16 16 11 21 22 16 36 -4 14 -2 18 5 14 6 -4 11 -23 11 -43 0 -20 7 -45
16 -55 16 -17 17 -17 34 2 13 15 16 31 13 61 -3 23 -1 39 4 36 5 -3 10 -20 11
-39 3 -43 49 -89 67 -65 8 11 16 13 26 6 25 -16 87 -11 98 9 10 16 12 16 25
-1 17 -23 86 -29 93 -9 4 10 8 10 20 0 8 -7 45 -13 82 -13 63 -1 67 0 69 22 1
13 -5 26 -13 29 -13 5 -13 8 1 21 10 11 12 19 5 27 -7 9 -7 16 0 23 8 8 8 16
-2 30 -14 19 -58 23 -92 8 -9 -4 -23 -3 -30 2 -6 5 -22 8 -34 7 -13 -1 -29 -2
-37 -3 -7 0 -17 -11 -20 -23 l-6 -23 -14 24 c-7 14 -23 26 -35 28 -13 2 -20
-1 -16 -7 8 -13 -1 -13 -27 1 -17 9 -23 8 -30 -5 -5 -9 -14 -16 -19 -16 -6 0
-8 4 -5 9 10 15 -29 19 -43 4 -11 -12 -15 -12 -21 -2 -5 7 -34 14 -67 16 -32
2 -62 4 -68 6 -5 2 -27 0 -49 -3z m-188 -38 c3 -9 -3 -11 -21 -7 -39 10 -40
-11 -2 -34 41 -24 44 -44 11 -66 -18 -12 -29 -13 -51 -5 -20 8 -25 14 -18 21
8 8 17 8 31 0 15 -8 23 -7 31 3 9 11 4 18 -24 35 -37 21 -43 39 -23 59 16 16
60 12 66 -6z m114 1 c42 -38 6 -133 -45 -118 -30 10 -47 33 -47 69 0 56 53 85
92 49z m218 7 c0 -6 -9 -10 -20 -10 -18 0 -20 -7 -20 -61 0 -37 -4 -58 -10
-54 -5 3 -10 31 -10 61 l0 54 -50 0 c-43 0 -50 -3 -50 -20 0 -15 7 -20 25 -20
14 0 25 -4 25 -10 0 -5 -11 -10 -25 -10 -21 0 -25 -5 -25 -31 0 -17 -4 -28
-10 -24 -5 3 -10 35 -10 70 l0 64 90 0 c51 0 90 -4 90 -9z m35 -37 c10 -71 10
-71 24 -10 7 32 16 57 20 57 5 0 15 -24 23 -52 l14 -53 8 53 c5 34 13 52 22
52 8 0 14 -1 14 -2 -5 -33 -40 -133 -47 -135 -6 -2 -14 13 -18 34 -11 58 -18
61 -29 13 -16 -65 -32 -61 -45 13 -13 77 -13 77 -2 77 6 0 13 -21 16 -47z
m204 -20 c11 -37 18 -69 16 -71 -7 -7 -25 9 -25 24 0 8 -10 14 -25 14 -15 0
-25 -6 -25 -14 0 -15 -18 -31 -25 -24 -3 2 5 29 16 59 11 30 22 60 24 67 10
28 25 8 44 -55z m95 57 c30 -11 36 -54 10 -64 -16 -6 -16 -8 0 -24 17 -19 22
-42 9 -42 -5 0 -16 14 -25 30 -22 38 -38 38 -38 0 0 -16 -4 -30 -10 -30 -11 0
-14 123 -3 133 9 10 27 9 57 -3z m126 -10 c0 -5 -13 -10 -30 -10 -20 0 -30 -5
-30 -15 0 -9 9 -15 25 -15 14 0 25 -4 25 -10 0 -5 -11 -10 -25 -10 -18 0 -25
-5 -25 -20 0 -16 7 -20 35 -20 19 0 35 -5 35 -11 0 -6 -17 -9 -41 -7 l-41 3
-2 63 -1 62 38 0 c20 0 37 -4 37 -10z"/>
<path d="M722 578 c-17 -17 -15 -53 3 -72 20 -20 44 -10 52 22 10 43 -27 78
-55 50z m31 -21 c3 -8 2 -20 -3 -26 -5 -9 -7 -4 -7 13 0 29 2 32 10 13z"/>
<path d="M1198 556 c-4 -18 -1 -26 8 -26 16 0 18 18 5 38 -6 10 -10 7 -13 -12z"/>
<path d="M1290 565 c0 -26 14 -31 39 -16 19 12 6 41 -19 41 -15 0 -20 -7 -20
-25z"/>
<path d="M1526 618 c3 -4 1 -8 -5 -8 -17 0 -24 -42 -10 -67 12 -22 11 -27 -3
-37 -14 -11 -14 -13 1 -31 20 -25 73 -31 94 -11 13 14 18 13 43 -12 15 -15 24
-21 20 -14 -5 8 -1 12 11 12 10 0 29 8 42 17 14 9 21 11 17 5 -4 -7 -4 -12 1
-12 4 -1 27 -5 50 -9 28 -5 40 -5 36 2 -4 6 4 7 23 3 69 -18 104 2 110 60 5
53 14 55 14 2 0 -53 21 -79 48 -61 10 6 17 22 17 36 0 14 3 29 8 33 4 4 7 -4
7 -19 0 -14 3 -32 6 -41 7 -19 40 -21 47 -3 4 9 7 9 14 -1 12 -16 118 -17 108
-1 -3 4 2 9 10 13 11 4 15 21 15 66 0 33 4 60 8 60 5 0 21 -21 35 -47 l27 -48
0 48 c0 26 5 47 10 47 6 0 10 -30 10 -70 0 -39 -4 -70 -10 -70 -5 0 -21 23
-35 50 -14 28 -27 50 -29 50 -2 0 -1 -23 2 -52 4 -45 3 -50 -12 -45 -9 4 -16
2 -16 -2 0 -17 25 -18 37 -2 9 13 14 14 24 4 20 -20 50 -15 56 7 3 11 10 17
15 14 6 -4 5 3 -1 15 -7 11 -11 36 -9 53 1 18 -3 41 -8 50 -8 16 -13 16 -36 4
-22 -12 -29 -12 -38 -1 -11 13 -50 9 -50 -6 0 -4 -16 -1 -35 7 -22 9 -42 11
-53 6 -15 -7 -38 -9 -44 -2 -8 7 -175 8 -187 1 -7 -5 -14 -23 -16 -40 -3 -47
-15 -50 -15 -4 0 47 -22 63 -51 37 -13 -12 -16 -25 -12 -45 4 -21 2 -29 -8
-29 -11 0 -11 -3 1 -11 13 -9 13 -10 0 -6 -10 2 -16 19 -18 48 -3 48 -17 63
-43 48 -25 -13 -42 -11 -36 4 6 15 -60 11 -80 -5 -9 -7 -18 -6 -30 3 -17 15
-85 21 -77 7z m74 -31 c0 -9 -10 -12 -30 -9 -37 5 -41 -14 -6 -28 33 -12 51
-46 35 -66 -15 -19 -63 -18 -80 2 -11 14 -9 15 23 9 50 -9 57 10 14 36 -37 22
-40 27 -30 53 8 20 74 22 74 3z m114 -3 c9 -8 16 -31 16 -49 0 -18 -7 -41 -16
-49 -36 -37 -94 -6 -94 50 0 38 22 64 55 64 13 0 31 -7 39 -16z m58 -39 l-4
-55 31 0 c17 0 31 -4 31 -10 0 -5 -18 -10 -40 -10 l-40 0 0 65 c0 47 4 65 13
65 10 0 13 -14 9 -55z m90 3 c3 -46 6 -53 25 -56 26 -4 38 28 31 78 -3 20 0
30 9 30 16 0 18 -82 3 -111 -12 -22 -59 -26 -78 -7 -14 14 -16 118 -3 118 6 0
11 -24 13 -52z m188 42 c0 -5 -9 -10 -21 -10 -19 0 -21 -5 -17 -55 2 -39 -1
-55 -9 -55 -9 0 -13 18 -13 55 0 48 -2 55 -20 55 -11 0 -20 5 -20 10 0 6 23
10 50 10 28 0 50 -4 50 -10z m40 -55 c0 -37 -4 -65 -10 -65 -6 0 -10 28 -10
65 0 37 4 65 10 65 6 0 10 -28 10 -65z m114 49 c27 -27 24 -81 -6 -107 -36
-31 -88 0 -88 53 0 58 58 91 94 54z m-154 -34 c0 -5 -2 -10 -4 -10 -3 0 -8 5
-11 10 -3 6 -1 10 4 10 6 0 11 -4 11 -10z"/>
<path d="M1644 556 c-9 -38 4 -66 31 -66 27 0 40 28 31 66 -9 34 -53 34 -62 0z
m42 -21 c1 -8 -2 -15 -7 -15 -5 0 -9 10 -9 22 0 23 12 17 16 -7z"/>
<path d="M2140 560 c-12 -22 -4 -60 13 -72 20 -12 47 12 47 40 0 49 -40 70
-60 32z m36 -36 c-4 -12 -10 -14 -17 -7 -5 5 -7 17 -3 27 4 12 10 14 17 7 5
-5 7 -17 3 -27z"/>
<path d="M1710 400 c-9 -6 -10 -10 -3 -10 6 0 15 5 18 10 8 12 4 12 -15 0z"/>
<path d="M1203 255 c0 -33 2 -45 4 -27 2 18 2 45 0 60 -2 15 -4 0 -4 -33z"/>
<path d="M1326 277 c3 -10 9 -15 12 -12 3 3 0 11 -7 18 -10 9 -11 8 -5 -6z"/>
<path d="M1441 274 c0 -11 3 -14 6 -6 3 7 2 16 -1 19 -3 4 -6 -2 -5 -13z"/>
<path d="M1601 264 c0 -11 3 -14 6 -6 3 7 2 16 -1 19 -3 4 -6 -2 -5 -13z"/>
<path d="M1201 174 c0 -11 3 -14 6 -6 3 7 2 16 -1 19 -3 4 -6 -2 -5 -13z"/>
<path d="M1201 134 c0 -11 3 -14 6 -6 3 7 2 16 -1 19 -3 4 -6 -2 -5 -13z"/>
<path d="M1395 79 c-4 -6 -5 -12 -2 -15 2 -3 7 2 10 11 7 17 1 20 -8 4z"/>
</g>
</svg>
