<!DOCTYPE svg PUBLIC "-//W3C//DTD SVG 1.1//EN" "http://www.w3.org/Graphics/SVG/1.1/DTD/svg11.dtd">
<!-- Uploaded to: SVG Repo, www.svgrepo.com, Transformed by: SVG Repo Mixer Tools -->
<svg version="1.1" id="Icons" xmlns="http://www.w3.org/2000/svg" xmlns:xlink="http://www.w3.org/1999/xlink" viewBox="-3.2 -3.2 38.40 38.40" xml:space="preserve" width="156px" height="156px" fill="#000000">
<g id="SVGRepo_bgCarrier" stroke-width="0">
<path transform="translate(-3.2, -3.2), scale(1.2)" d="M16,28.97728432714939C18.32550035868581,28.093890995748453,19.185081186442087,25.353662761012007,20.789439151114955,23.452512788652587C21.874869741948356,22.166287156219145,23.312831823499128,21.18548057855961,23.90490061026201,19.610047147155136C24.47523278023251,18.092452591141445,23.82873923439904,16.455814243381372,24.02374573553199,14.84635952669577C24.311986213750416,12.467413212018375,26.03692143902762,10.210270935369207,25.320890565344545,7.923402349434854C24.52896151699338,5.394129200013706,22.704993668781256,2.311147529065803,20.057880481893008,2.1801282258792156C17.211421327612673,2.0392422612026184,15.788347108565304,5.698275457655523,13.456064350426459,7.336150821691943C12.020714758258945,8.344143410749595,10.086906515635198,8.558486681966214,9.00713974222165,9.940652094050705C7.949897997492987,11.29398413552125,8.496931141497525,13.314955498137468,7.628091440562875,14.796301269842214C5.933123679392146,17.686170739993152,1.4731983395017685,19.230634397308005,1.5946684808219835,22.578694473036368C1.701417922055127,25.521010489256575,5.42604702295581,27.071313774634447,8.116800328291195,28.266498125408937C10.577874375851374,29.359663069927894,13.482582574390044,29.933581649499885,16,28.97728432714939" fill="#7ed0ec" strokewidth="0"/>
</g>
<g id="SVGRepo_tracerCarrier" stroke-linecap="round" stroke-linejoin="round"/>
<g id="SVGRepo_iconCarrier"> <style type="text/css"> .st0{fill:none;stroke:#000000;stroke-width:2;stroke-linecap:round;stroke-linejoin:round;stroke-miterlimit:10;} </style> <path d="M19,8c0.6,0,1-0.4,1-1V5c0-1.7-1.3-3-3-3H7C5.3,2,4,3.3,4,5v22c0,1.7,1.3,3,3,3h10c1.7,0,3-1.3,3-3v-4c0-0.6-0.4-1-1-1H6V8 H19z M11,25h2c0.6,0,1,0.4,1,1s-0.4,1-1,1h-2c-0.6,0-1-0.4-1-1S10.4,25,11,25z"/> <g> <path d="M14,19c-0.3,0-0.5-0.1-0.7-0.3l-3-3c-0.4-0.4-0.4-1,0-1.4l3-3c0.4-0.4,1-0.4,1.4,0s0.4,1,0,1.4L12.4,15l2.3,2.3 c0.4,0.4,0.4,1,0,1.4C14.5,18.9,14.3,19,14,19z"/> </g> <g> <path d="M24,19c-0.3,0-0.5-0.1-0.7-0.3c-0.4-0.4-0.4-1,0-1.4l2.3-2.3l-2.3-2.3c-0.4-0.4-0.4-1,0-1.4s1-0.4,1.4,0l3,3 c0.4,0.4,0.4,1,0,1.4l-3,3C24.5,18.9,24.3,19,24,19z"/> </g> <g> <path d="M17,20c-0.1,0-0.3,0-0.4-0.1c-0.5-0.2-0.7-0.8-0.4-1.3l4-8c0.2-0.5,0.8-0.7,1.3-0.4c0.5,0.2,0.7,0.8,0.4,1.3l-4,8 C17.7,19.8,17.4,20,17,20z"/> </g> </g>
</svg>