<!DOCTYPE svg PUBLIC "-//W3C//DTD SVG 1.1//EN" "http://www.w3.org/Graphics/SVG/1.1/DTD/svg11.dtd">
<!-- Uploaded to: SVG Repo, www.svgrepo.com, Transformed by: SVG Repo Mixer Tools -->
<svg height="171px" width="171px" version="1.1" id="Layer_1" xmlns="http://www.w3.org/2000/svg" xmlns:xlink="http://www.w3.org/1999/xlink" viewBox="-51.2 -51.2 614.40 614.40" xml:space="preserve" fill="#000000">
<g id="SVGRepo_bgCarrier" stroke-width="0">
<path transform="translate(-51.2, -51.2), scale(19.2)" d="M16,29.447057392862106C18.01759707614616,29.761108233253307,20.082470980800593,29.181064187521837,21.94926616348139,28.353778482372924C23.843508726877786,27.514329243741354,26.286505073134993,26.640643892255273,26.83887985908077,24.643718252910375C27.463098559375098,22.38706505495167,24.905226459546174,20.35034828466653,24.810242093652953,18.0108802656737C24.7464372128997,16.439363979028233,26.732724908327853,15.163557235693341,26.391639597460923,13.62817607366526C26.050984956589783,12.094733554485522,23.714685906373287,11.781691209574939,23.104838981581615,10.334079979894302C22.18400860805394,8.148278371064277,24.21453118879432,4.408891137702048,22.075783848163436,3.3835048383400217C19.934706632183293,2.357001519582126,18.370416667817647,6.789779356298908,16,6.927784896559185C13.83810114682365,7.053650540043441,12.286405080820003,3.3196336431078266,10.255621015819933,4.071674129329622C8.330989373502318,4.784404222613245,9.142051390530119,7.965456494955833,8.231320062731239,9.804684483283538C7.532376251457032,11.216206170004128,6.258472619520369,12.213154315691845,5.532138339679623,13.610778885213032C4.659866111335769,15.289219696118531,3.2577483796565345,16.97409060410869,3.532857977820443,18.8455438108577C3.8052756837647608,20.69868522347012,5.659296431443662,21.859009092768364,6.94490100660032,23.221200480932083C8.15136077407801,24.499532199084104,9.432029038163241,25.63498590510543,10.8804513037248,26.630852408609456C12.505748977691505,27.74833006012769,14.051072019872194,29.14369530076879,16,29.447057392862106" fill="#7ed0ec" strokewidth="0"/>
</g>
<g id="SVGRepo_tracerCarrier" stroke-linecap="round" stroke-linejoin="round"/>
<g id="SVGRepo_iconCarrier"> <path d="M310.015,430.842H201.753c-6.808,0-12.336-5.52-12.336-12.336c0-6.816,5.52-12.336,12.336-12.336l0,0h108.262 c6.808,0,12.336,5.52,12.336,12.336C322.351,425.322,316.823,430.842,310.015,430.842z"/> <path d="M310.015,466.225H201.753c-6.808,0-12.336-5.52-12.336-12.336c0-6.816,5.52-12.336,12.336-12.336l0,0h108.262 c6.808,0,12.336,5.52,12.336,12.336C322.351,460.705,316.823,466.225,310.015,466.225z"/> <path style="fill:#E21B1B;" d="M196.073,481.081C204.377,499.032,228.001,512,255.881,512c27.88,0,51.503-12.968,59.808-30.919 L196.073,481.081L196.073,481.081z"/> <ellipse style="fill:#CCCCCC;" cx="255.777" cy="102.311" rx="0.024" ry="0.024"/> <path style="fill:#E21B1B;" d="M255.904,102.319L255.904,102.319c-105.799,0.088-158.902,107.726-110.303,180.573 c46.175,69.151,42.4,108.31,42.4,108.31h135.806c0,0-3.815-39.199,42.343-108.342C414.766,210.045,361.663,102.407,255.904,102.319z "/> <g> <ellipse style="fill:#CCCCCC;" cx="255.897" cy="102.351" rx="0.056" ry="0.056"/> <path style="fill:#CCCCCC;" d="M256.001,82.214c-6.808,0-12.328-5.52-12.328-12.328l0,0V12.335c0-6.807,5.52-12.335,12.336-12.335 c6.808,0,12.336,5.52,12.336,12.336v57.543c0.008,6.808-5.512,12.328-12.32,12.336C256.008,82.214,256.008,82.214,256.001,82.214z"/> <path style="fill:#CCCCCC;" d="M91.587,271.284H34.044c-6.808,0-12.336-5.52-12.336-12.336c0-6.808,5.52-12.336,12.336-12.336 h57.543c6.808,0,12.336,5.52,12.336,12.336C103.923,265.764,98.395,271.284,91.587,271.284L91.587,271.284z"/> <path style="fill:#CCCCCC;" d="M477.956,271.284h-57.543c-6.808,0-12.336-5.52-12.336-12.336c0-6.808,5.52-12.336,12.336-12.336 h57.543c6.808,0,12.336,5.52,12.336,12.336C490.285,265.764,484.765,271.284,477.956,271.284z"/> <path style="fill:#CCCCCC;" d="M122.306,137.606c-3.272,0-6.408-1.296-8.72-3.616L72.899,93.294c-4.816-4.816-4.816-12.624,0-17.44 c4.816-4.816,12.624-4.816,17.44,0l40.687,40.687c4.816,4.816,4.816,12.616,0.008,17.432c-2.312,2.312-5.456,3.616-8.728,3.616 C122.306,137.59,122.306,137.606,122.306,137.606z"/> <path style="fill:#CCCCCC;" d="M389.694,137.606c-6.808,0-12.328-5.512-12.336-12.32c0-3.272,1.296-6.416,3.616-8.728 l40.687-40.687c4.816-4.816,12.624-4.816,17.44,0c4.816,4.816,4.816,12.624,0,17.44l-40.703,40.663 C396.094,136.294,392.967,137.598,389.694,137.606z"/> </g> </g>
</svg>