<!DOCTYPE svg PUBLIC "-//W3C//DTD SVG 1.1//EN" "http://www.w3.org/Graphics/SVG/1.1/DTD/svg11.dtd">
<!-- Uploaded to: SVG Repo, www.svgrepo.com, Transformed by: SVG Repo Mixer Tools -->
<svg fill="#000000" version="1.1" id="Layer_1" xmlns="http://www.w3.org/2000/svg" xmlns:xlink="http://www.w3.org/1999/xlink" viewBox="-49.6 -49.6 595.20 595.20" xml:space="preserve" width="169px" height="169px">
<g id="SVGRepo_bgCarrier" stroke-width="0">
<path transform="translate(-49.6, -49.6), scale(18.6)" d="M16,28.97457896835274C18.195172207095876,29.06299982854257,20.364738833119876,30.035004237428353,22.489000953173647,29.474549321643366C24.721440546129365,28.885553391125434,26.686237330321838,27.47041584573788,28.225077877425917,25.749174284262153C29.798800296930477,23.98891625117682,31.595108640504584,21.866271380637798,31.39433242787627,19.513655919255434C31.18227963241733,17.02890596459017,28.309573198204486,15.670229330818453,27.17538490484406,13.449291321671158C26.35046700514055,11.833958551440148,27.044802526057726,9.469376306775777,25.664199274839696,8.293058253458717C24.2234630446538,7.065504981988125,21.694553091780882,8.493795706293325,20.12234031762724,7.439872126494235C18.166883376720527,6.129043075119294,18.13531769647491,2.805932034514172,16,1.8147191488080558C13.99962396197314,0.8861460805366362,11.492990155085149,1.5582001259599574,9.503956240027753,2.5108261393474134C7.51395244212175,3.4639166675048423,6.12857522682269,5.313628496350209,4.886600897330135,7.137359955591192C3.6957411383344896,8.886034106458588,2.44108401760398,10.786527936248142,2.4273952164355563,12.90214152767488C2.4139976447085196,14.972745409570432,4.416538687045351,16.521030412310466,4.812734771396185,18.553420284700646C5.225939352075276,20.673059620292303,3.8493984025429415,23.000145276587304,4.776156323496982,24.950716652987197C5.702686740477168,26.900809195886577,7.72560432272479,28.233129297043725,9.757951829131368,28.961746585243922C11.741437456916753,29.672846392115208,13.894605418660024,28.889774323268718,16,28.97457896835274" fill="#7ed0ec" strokewidth="0"/>
</g>
<g id="SVGRepo_tracerCarrier" stroke-linecap="round" stroke-linejoin="round" stroke="#CCCCCC" stroke-width="0.992"/>
<g id="SVGRepo_iconCarrier"> <g> <g> <g> <path d="M432,336h-10.84c16.344-13.208,26.84-33.392,26.84-56v-32c0-30.872-25.128-56-56-56h-32c-2.72,0-5.376,0.264-8,0.64V48 h16V0H0v48h16v232H0v48h187.056l40,80H304v88h192v-96C496,364.712,467.288,336,432,336z M422.584,371.328l-32.472,13.92 L412.28,352h5.472L422.584,371.328z M358.944,352h34.112L376,377.576L358.944,352z M361.872,385.248l-32.472-13.92L334.24,352 h5.472L361.872,385.248z M432.008,280C432,310.872,406.872,336,376,336s-56-25.128-56-56h37.424 c14.12,0,27.392-5.504,37.368-15.48l4.128-4.128c8.304,10.272,20.112,16.936,33.088,18.92V280z M48,192v72h107.176 c0.128,0.28,0.176,0.584,0.312,0.856L163.056,280H32V48h304v149.48c-18.888,9.008-32,28.24-32,50.52v32h-65.064l-24.816-46.528 C208.368,222.696,197.208,216,185,216c-10.04,0-18.944,4.608-25,11.712V192H48z M144,208v40H64v-40H144z M360,208h32 c22.056,0,40,17.944,40,40v15.072c-9.168-2.032-17.32-7.48-22.656-15.48l-8.104-12.152l-17.768,17.768 c-6.96,6.96-16.208,10.792-26.048,10.792H320v-16C320,225.944,337.944,208,360,208z M16,16h336v16H16V16z M16,312v-16h155.056 l8,16H16z M256,392h-19.056L169.8,257.712c-1.176-2.36-1.8-4.992-1.8-7.608V249c0-9.376,7.624-17,17-17c6.288,0,12.04,3.456,15,9 l56,104.992V392z M247.464,296h58.392c1.28,5.616,3.232,10.968,5.744,16H256L247.464,296z M264.536,328h57.952 c2.584,2.872,5.352,5.568,8.36,8H268.8L264.536,328z M480,480h-32v-32h32V480z M480,432h-32v-32h-16v80H320v-88h-48v-40h45.76 l-7.168,28.672L376,408.704l65.416-28.032l-7.144-28.56C459.68,353.312,480,374.296,480,400V432z"/> <path d="M160,128v-16h-16.808c-1.04-5.096-3.072-9.832-5.856-14.024l11.92-11.92l-11.312-11.312l-11.92,11.92 c-4.192-2.784-8.928-4.816-14.024-5.856V64H96v16.808c-5.096,1.04-9.832,3.072-14.024,5.856l-11.92-11.92L58.744,86.056 l11.92,11.92c-2.784,4.192-4.816,8.928-5.856,14.024H48v16h16.808c1.04,5.096,3.072,9.832,5.856,14.024l-11.92,11.92 l11.312,11.312l11.92-11.92c4.192,2.784,8.928,4.816,14.024,5.856V176h16v-16.808c5.096-1.04,9.832-3.072,14.024-5.856 l11.92,11.92l11.312-11.312l-11.92-11.92c2.784-4.192,4.816-8.928,5.856-14.024H160z M104,144c-13.232,0-24-10.768-24-24 s10.768-24,24-24s24,10.768,24,24S117.232,144,104,144z"/> <polygon points="244.28,80 272,80 272,64 235.72,64 203.72,112 176,112 176,128 212.28,128 "/> <rect x="288" y="64" width="32" height="16"/> <path d="M224,144h-48v48h48V144z M208,176h-16v-16h16V176z"/> <rect x="240" y="160" width="32" height="16"/> <rect x="288" y="160" width="32" height="16"/> </g> </g> </g> </g>
</svg>